# xmcd
#
# Track frame offsets: 
#        150
#        12968
#        25753
#        41351
#        57567
#        74352
#        93243
#        107695
#        124801
#        141759
#        157752
#        169478
#        184557
#        198331
#        214247
#        233611
#        245811
#        260437
#
# Disc length: 3644 seconds
#
# Revision: 0
# Processed by: cddbd v1.5.2PL0 Copyright (c) Steve Scherf et al.
# Submitted via: ExactAudioCopy v0.99pb5
#
DISCID=f70e3a12
DTITLE=WANDER e CRISTIANO - VAMPIRA
DYEAR=2010
DGENRE=SERTANEJO
TTITLE0=VAMPIRA
TTITLE1=A CULPA É MINHA
TTITLE2=AVASSALADORA
TTITLE3=FADA ENCANTADA
TTITLE4=CORAÇÃO CIGANO
TTITLE5=TARDES DE CHUVA
TTITLE6=PARA DE CIÚMES
TTITLE7=QUEM AMA NÃO FAZ CHORAR
TTITLE8=MERDA.COM
TTITLE9=QUERO VOCÊ
TTITLE10=TO QUERENDO POR
TTITLE11=VENENO MELADO
TTITLE12=FICAR NÃO TÁ COM NADA
TTITLE13=ABRE A PORTA
TTITLE14=DIAMANTE NEGRO
TTITLE15=SAFADA
TTITLE16=FESTA BOA
TTITLE17=E LÁ EM CUIA
EXTD=
EXTT0=
EXTT1=
EXTT2=
EXTT3=
EXTT4=
EXTT5=
EXTT6=
EXTT7=
EXTT8=
EXTT9=
EXTT10=
EXTT11=
EXTT12=
EXTT13=
EXTT14=
EXTT15=
EXTT16=
EXTT17=
PLAYORDER=
